<svg xmlns="http://www.w3.org/2000/svg"
 viewBox="283.0 836.2 1796.7 689.3"
 preserveAspectRatio="xMidYMid meet">

<g transform="translate(0.000000,2363.000000) scale(0.100000,-0.100000)"
fill="currentColor" stroke="none">
<path d="M6045 15133 c-398 -25 -831 -140 -1203 -318 -1003 -481 -1700 -1431
-1856 -2530 -33 -230 -36 -403 -36 -2092 l0 -1693 120 0 120 0 0 1184 0 1184
39 58 c150 225 455 421 791 508 184 48 386 69 566 59 l105 -6 -33 -20 c-199
-118 -331 -236 -406 -363 -52 -88 -100 -230 -108 -322 l-7 -72 100 0 100 0 7
51 c30 223 210 434 478 558 46 22 120 51 166 67 l83 27 97 -32 c470 -158 810
-488 946 -919 55 -174 56 -195 56 -1114 l0 -848 105 0 105 0 0 763 c0 799 -7
975 -41 1134 -101 466 -407 849 -854 1071 -259 129 -531 199 -860 223 -129 9
-160 15 -221 40 -266 111 -535 335 -695 577 l-71 109 -97 -31 -98 -30 33 -58
c131 -231 313 -428 542 -586 40 -28 69 -52 65 -55 -4 -3 -35 -10 -68 -17 -250
-51 -578 -217 -764 -386 l-63 -58 5 450 c4 344 9 476 21 563 17 115 62 340 69
348 3 2 55 17 118 34 168 44 436 156 564 237 l30 18 85 -37 c204 -88 510 -159
686 -159 36 0 59 -11 151 -73 214 -145 439 -256 676 -335 l113 -37 48 -85 c27
-47 124 -202 216 -345 207 -322 274 -435 361 -600 165 -315 260 -601 316 -947
14 -88 17 -221 20 -915 l4 -813 100 0 99 0 0 758 c0 909 -5 983 -90 1317 -52
204 -116 378 -214 580 -100 206 -170 329 -334 585 -326 509 -387 618 -443 788
-29 88 -32 112 -37 253 -11 397 103 677 403 987 l120 124 106 -110 c229 -238
337 -427 395 -692 15 -66 19 -125 18 -265 0 -167 -2 -187 -28 -270 -46 -150
-137 -327 -291 -566 l-63 -96 60 -93 c33 -50 61 -90 63 -89 21 22 249 388 283
456 19 36 27 42 84 58 223 62 522 207 745 361 79 54 100 64 136 64 179 0 499
75 697 164 l75 33 36 -22 c127 -81 386 -189 561 -235 61 -16 112 -31 115 -34
8 -7 51 -233 69 -356 12 -87 17 -223 21 -559 l5 -444 -73 62 c-216 183 -481
320 -737 381 l-92 22 72 50 c229 157 409 351 538 581 18 32 31 60 29 62 -2 2
-45 17 -95 33 l-92 29 -72 -111 c-131 -199 -375 -418 -589 -525 -141 -72 -176
-82 -319 -91 -407 -28 -827 -166 -1109 -367 -35 -24 -63 -50 -63 -57 0 -7 18
-52 40 -99 l40 -85 93 69 c105 79 306 183 447 230 l96 33 84 -28 c203 -68 345
-152 462 -274 109 -114 166 -223 183 -349 l7 -53 100 0 101 0 -7 63 c-19 192
-113 378 -257 511 -55 51 -152 121 -257 183 l-33 20 118 6 c460 25 934 -141
1227 -429 41 -40 93 -97 115 -127 l41 -54 0 -1191 0 -1192 120 0 121 0 -4
1788 c-4 1951 -1 1850 -62 2169 -259 1352 -1370 2423 -2740 2642 -230 36 -514
49 -750 34z m645 -257 c97 -14 350 -65 359 -72 7 -6 -52 -172 -95 -263 -24
-52 -70 -132 -101 -179 -64 -97 -227 -271 -316 -338 l-60 -45 -35 33 c-49 47
-106 134 -162 246 -87 176 -135 352 -147 546 l-6 99 229 -6 c126 -3 276 -13
334 -21z m-757 -98 c11 -203 67 -409 163 -606 l55 -113 -128 -133 c-176 -183
-293 -349 -364 -519 -18 -43 -35 -74 -39 -70 -3 4 -31 42 -62 83 -98 130 -250
260 -381 327 -41 20 -48 28 -43 46 14 50 56 291 70 402 18 142 26 258 29 414
l2 114 55 19 c151 52 515 134 606 137 l31 1 6 -102z m1461 -88 c322 -126 667
-335 905 -548 l55 -48 -13 -89 c-91 -606 -470 -1110 -1064 -1414 -103 -53
-318 -143 -324 -137 -2 2 7 38 19 82 18 68 22 109 24 289 2 202 3 212 28 269
64 144 205 314 339 410 145 103 341 174 552 199 l110 12 26 85 c15 47 28 91
28 99 1 11 -20 13 -116 8 -410 -20 -758 -197 -984 -500 -48 -64 -60 -75 -66
-60 -43 119 -146 296 -245 421 -28 35 -49 64 -47 66 124 87 298 264 387 394
83 121 162 280 204 409 18 56 38 103 44 103 6 0 68 -22 138 -50z m-2374 -320
c-18 -188 -68 -502 -83 -517 -3 -2 -32 3 -66 12 -91 23 -247 45 -328 45 -86 0
-85 4 -45 -115 l27 -80 103 -12 c291 -34 518 -139 693 -320 87 -90 146 -174
195 -276 l34 -72 3 -220 c3 -186 7 -231 25 -290 11 -38 20 -71 19 -72 -5 -4
-186 70 -270 111 -523 253 -883 646 -1046 1143 -43 129 -84 325 -79 370 2 21
26 47 99 108 188 157 380 282 606 395 l118 59 3 -77 c2 -42 -2 -129 -8 -192z
m-980 -557 c73 -318 240 -635 460 -876 29 -31 46 -57 39 -57 -28 0 -241 60
-306 86 -173 69 -291 143 -401 254 -73 73 -162 203 -162 235 0 19 96 159 188
275 70 87 151 180 157 180 1 0 13 -44 25 -97z m4674 -113 c40 -52 95 -128 122
-168 l48 -74 -34 -65 c-63 -123 -245 -290 -399 -368 -113 -57 -382 -145 -442
-145 -7 0 5 19 28 43 209 218 385 543 465 862 l33 128 53 -59 c29 -33 86 -102
126 -154z m-5121 -515 c51 -69 104 -126 165 -177 l44 -36 -24 -16 c-60 -39
-376 -166 -414 -166 -18 0 -16 7 38 145 39 101 139 317 144 313 1 -2 22 -30
47 -63z m5551 -244 c32 -78 54 -146 51 -149 -10 -10 -182 52 -321 115 -68 30
-124 57 -124 59 0 2 40 42 89 89 49 48 107 111 127 141 l38 55 42 -83 c23 -46
67 -148 98 -227z"/>
<path d="M5542 14329 c-63 -31 -97 -87 -96 -158 0 -67 20 -110 71 -148 32 -25
45 -28 108 -28 63 0 76 3 108 28 51 38 71 81 71 148 1 44 -5 64 -26 96 -51 77
-152 103 -236 62z"/>
<path d="M7407 14366 c-76 -28 -117 -90 -117 -176 0 -59 17 -97 60 -134 91
-76 229 -47 280 59 71 146 -72 307 -223 251z"/>
<path d="M7355 13286 c-96 -43 -135 -168 -81 -260 65 -112 232 -116 306 -9 20
30 25 49 25 103 0 58 -4 72 -28 103 -52 69 -148 96 -222 63z"/>
<path d="M5045 13286 c-96 -43 -135 -168 -81 -260 65 -112 232 -116 306 -9 20
30 25 49 25 103 0 58 -4 72 -28 103 -52 69 -148 96 -222 63z"/>
<path d="M6266 13185 c-23 -118 -117 -214 -246 -249 -43 -11 -48 -15 -25 -15
44 -2 134 -46 178 -89 43 -41 82 -111 96 -169 7 -29 9 -32 10 -13 1 14 13 50
27 80 43 94 119 158 217 185 28 7 44 14 35 14 -37 2 -127 43 -166 77 -50 42
-91 110 -107 173 l-12 45 -7 -39z"/>
<path d="M11275 12903 c-200 -42 -358 -153 -433 -303 -42 -83 -55 -155 -50
-274 6 -122 28 -190 92 -280 80 -112 183 -188 448 -327 217 -114 277 -150 354
-210 77 -61 127 -122 161 -196 36 -77 44 -224 18 -305 -44 -130 -130 -209
-280 -254 -84 -25 -251 -25 -325 0 -165 56 -304 169 -416 337 -37 55 -67 99
-69 99 -2 0 -13 -44 -25 -97 -12 -54 -28 -124 -35 -155 l-13 -57 50 -33 c68
-43 195 -94 291 -115 71 -17 101 -33 59 -33 -67 0 -264 -73 -358 -133 l-41
-26 34 -153 c19 -84 36 -154 38 -156 2 -2 11 9 21 25 127 210 280 348 444 403
191 64 423 18 540 -106 80 -84 94 -126 95 -269 0 -117 -1 -123 -34 -189 -38
-77 -116 -162 -208 -224 -33 -22 -153 -90 -268 -151 -258 -138 -331 -186 -420
-275 -73 -74 -125 -162 -144 -246 -16 -67 -13 -218 4 -285 37 -140 141 -262
285 -332 138 -67 197 -78 405 -77 162 1 190 3 280 27 90 24 270 104 319 142
19 14 19 18 -15 167 -19 83 -38 153 -44 154 -5 2 -21 -20 -34 -48 -64 -137
-201 -293 -307 -350 -180 -97 -423 -68 -557 67 -25 25 -58 71 -74 103 -25 52
-28 67 -28 162 0 122 16 166 93 251 69 77 152 130 400 258 326 168 435 247
522 382 54 84 81 173 87 289 10 174 -44 320 -160 432 -64 62 -178 126 -266
149 -28 7 -51 16 -51 19 0 3 22 12 48 18 185 48 339 184 400 355 22 62 26 89
26 192 1 150 -21 229 -95 340 -85 127 -204 213 -495 358 -302 151 -411 231
-475 349 -33 60 -34 67 -34 168 0 93 3 112 27 162 99 211 394 292 630 172 100
-51 243 -215 318 -363 12 -24 25 -39 30 -35 4 5 23 75 41 157 38 171 45 150
-81 216 -101 52 -204 88 -307 106 -109 19 -325 18 -418 -2z"/>
<path d="M13340 12901 c-427 -94 -712 -427 -781 -910 -18 -130 -6 -372 25
-496 87 -350 293 -595 616 -732 l75 -32 -267 -1 c-183 0 -268 -3 -268 -11 0
-6 14 -22 30 -36 17 -14 41 -44 53 -67 l22 -41 3 -924 c3 -1040 6 -997 -68
-1071 -22 -22 -40 -42 -40 -45 0 -3 336 -4 747 -3 l747 3 33 185 c18 102 32
194 30 205 -1 14 -13 1 -37 -45 -47 -88 -146 -186 -235 -230 l-70 -35 -402 -3
-403 -3 0 541 0 540 307 0 306 0 33 -25 c40 -30 76 -90 99 -162 10 -29 21 -53
26 -53 5 0 9 124 9 280 0 154 -4 280 -8 280 -5 0 -15 -19 -22 -42 -19 -66 -49
-119 -88 -160 l-36 -38 -313 0 -313 0 0 435 0 435 365 0 366 0 52 -26 c71 -36
174 -144 217 -226 19 -38 38 -68 41 -68 6 0 -56 371 -66 398 -3 9 -38 12 -127
12 l-123 1 72 28 c157 62 334 212 416 351 54 94 49 123 -10 49 -127 -159 -382
-259 -657 -259 -135 0 -222 20 -335 76 -206 101 -365 311 -435 573 -37 138
-50 265 -43 420 15 312 101 557 252 719 110 118 218 176 353 188 206 19 383
-113 525 -392 28 -57 57 -104 62 -104 6 0 42 68 82 150 l72 151 -62 46 c-83
60 -243 138 -342 164 -116 31 -366 36 -485 10z"/>
<path d="M14700 12899 c0 -6 14 -22 30 -36 17 -14 41 -44 53 -67 l22 -41 3
-924 c3 -1041 6 -998 -68 -1070 -22 -21 -40 -41 -40 -45 0 -3 15 -6 34 -6 23
0 45 -9 66 -26 64 -54 60 11 60 -1047 l0 -964 -28 -42 c-15 -23 -38 -48 -50
-57 -12 -8 -22 -22 -22 -30 0 -12 26 -14 150 -14 83 0 150 4 150 8 0 5 -14 21
-31 38 -17 16 -42 47 -55 70 l-24 41 2 843 3 842 838 -921 c797 -875 841 -921
873 -921 l34 0 2 953 3 952 28 57 c16 32 49 79 75 104 45 45 149 104 184 104
9 0 20 5 23 10 3 6 -4 10 -17 10 -41 0 -142 56 -190 106 -26 27 -60 76 -75
109 l-28 60 -3 758 c-1 459 1 757 7 755 5 -1 359 -388 786 -858 428 -470 805
-884 839 -919 49 -51 56 -63 36 -57 -169 48 -413 68 -574 47 -230 -31 -427
-135 -520 -275 -62 -93 -79 -155 -79 -281 0 -87 4 -122 21 -167 44 -121 126
-214 272 -311 69 -45 130 -76 470 -240 343 -164 479 -338 442 -562 -29 -176
-148 -286 -355 -329 -263 -54 -514 33 -713 247 -38 41 -85 100 -104 130 -19
31 -40 56 -46 57 -15 0 -85 -292 -73 -307 19 -23 175 -92 264 -118 146 -42
249 -57 436 -62 260 -8 394 14 559 94 207 100 320 274 320 493 0 131 -33 229
-113 337 -89 120 -224 207 -553 358 -290 133 -363 175 -444 255 -94 92 -115
140 -115 260 1 115 20 165 95 244 63 66 147 109 260 132 198 40 379 -14 537
-158 53 -49 147 -172 183 -241 14 -26 30 -47 35 -47 16 0 88 300 75 315 -6 7
-58 34 -115 61 l-105 49 0 1051 0 1050 29 45 c15 24 40 55 54 68 15 13 24 28
21 32 -3 5 -70 9 -150 9 -160 0 -168 -4 -113 -56 17 -16 39 -46 50 -66 18 -36
19 -66 17 -814 l-3 -776 -784 856 -783 856 -129 0 c-71 0 -129 -4 -129 -8 0
-5 17 -27 38 -48 72 -76 66 82 70 -1989 2 -1693 1 -1868 -13 -1854 -9 9 -362
393 -784 855 l-768 839 568 3 569 2 5 23 c20 84 70 387 64 387 -4 0 -23 -28
-41 -62 -48 -91 -142 -181 -236 -226 l-77 -37 -397 -3 -398 -3 0 541 0 540
309 0 309 0 31 -26 c38 -32 74 -92 96 -161 10 -29 21 -53 26 -53 5 0 9 124 9
280 0 154 -4 280 -8 280 -5 0 -15 -19 -22 -42 -19 -66 -49 -119 -88 -160 l-36
-38 -313 0 -313 0 0 435 0 435 365 0 366 0 52 -26 c72 -37 175 -144 217 -226
19 -38 38 -68 41 -68 6 0 -56 371 -66 398 -6 16 -1385 18 -1385 1z"/>
<path d="M18945 12898 c-11 -31 -75 -411 -70 -416 7 -7 5 -9 50 73 50 92 180
222 255 257 81 38 145 48 301 48 l139 0 -2 -992 c-3 -942 -4 -995 -22 -1035
-10 -24 -34 -56 -52 -73 l-35 -30 -204 0 c-113 0 -205 -4 -205 -9 0 -5 18 -26
39 -48 74 -73 71 -35 71 -1043 0 -1008 3 -970 -71 -1043 -21 -22 -39 -43 -39
-48 0 -5 321 -9 745 -9 l745 0 5 23 c17 73 66 370 63 379 -3 7 -21 -18 -41
-54 -53 -94 -141 -179 -234 -225 l-77 -38 -400 0 -401 0 0 535 0 535 312 3
311 2 31 -26 c38 -32 74 -92 96 -161 10 -29 21 -53 26 -53 5 0 9 124 9 280 0
278 -6 328 -31 238 -16 -62 -58 -135 -96 -169 l-34 -29 -312 2 -312 3 -3 433
-2 432 371 0 371 0 59 -32 c75 -39 164 -134 209 -221 19 -37 38 -67 41 -67 5
0 -56 369 -66 398 -3 9 -60 12 -236 12 l-232 0 -37 39 c-67 71 -65 29 -65
1111 l0 975 135 3 c163 4 233 -8 323 -55 85 -45 200 -164 248 -257 34 -65 56
-87 46 -43 -3 12 -20 105 -37 206 -17 101 -33 188 -36 193 -3 4 -374 8 -825 8
-647 0 -821 -3 -824 -12z"/>
<path d="M8147 12537 c-9 -58 -43 -121 -90 -168 -42 -42 -126 -89 -159 -89
-10 0 -18 -4 -18 -10 0 -5 8 -10 18 -10 37 0 119 -49 165 -98 49 -53 61 -75
83 -152 7 -26 13 -36 13 -23 1 35 35 117 65 156 35 46 95 86 159 108 41 14 48
19 32 24 -11 3 -48 20 -83 37 -89 43 -145 115 -167 213 l-12 50 -6 -38z"/>
<path d="M4378 12501 c-30 -102 -117 -187 -215 -214 -44 -11 -58 -27 -25 -27
26 -1 100 -37 136 -66 48 -41 93 -110 107 -165 l13 -49 17 54 c18 60 57 119
105 160 36 29 110 65 137 66 32 0 18 16 -25 27 -56 15 -129 64 -165 111 -15
20 -37 64 -48 98 l-21 60 -16 -55z"/>
<path d="M5210 12099 c-83 -48 -115 -163 -68 -244 69 -119 228 -125 312 -12
31 43 34 140 4 192 -47 80 -167 111 -248 64z"/>
<path d="M7165 12104 c-66 -34 -97 -88 -97 -165 2 -136 141 -219 262 -157 126
65 132 233 11 315 -41 28 -130 31 -176 7z"/>
<path d="M3324 11941 c-136 -63 -137 -257 -3 -327 76 -39 194 -3 237 74 85
152 -76 327 -234 253z"/>
<path d="M9080 11949 c-32 -13 -78 -56 -96 -91 -23 -44 -18 -125 11 -175 57
-95 195 -113 279 -35 57 53 71 133 37 207 -10 22 -27 48 -37 57 -48 42 -137
59 -194 37z"/>
<path d="M3682 11054 c-43 -21 -56 -34 -78 -80 -21 -44 -25 -62 -20 -98 23
-153 200 -215 307 -107 89 89 67 230 -45 286 -63 32 -99 31 -164 -1z"/>
<path d="M8722 11066 c-69 -25 -122 -101 -122 -176 1 -69 68 -151 141 -170
129 -35 254 90 219 219 -28 104 -139 163 -238 127z"/>
<path d="M5766 10579 c-25 -87 -54 -245 -71 -379 -12 -102 -15 -264 -15 -912
l0 -788 100 0 99 0 4 823 c2 637 6 842 17 910 12 79 12 92 -4 145 -23 73 -67
177 -94 221 l-21 34 -15 -54z"/>
</g>
</svg>
